<svg width="14" height="14" viewBox="0 0 14 14" fill="none" xmlns="http://www.w3.org/2000/svg">
<path d="M1 11V7C1 5.4087 1.63214 3.88258 2.75736 2.75736C3.88258 1.63214 5.4087 1 7 1C8.5913 1 10.1174 1.63214 11.2426 2.75736C12.3679 3.88258 13 5.4087 13 7V11" stroke="white" stroke-width="2" stroke-linecap="round" stroke-linejoin="round"/>
<path d="M13 11.6666C13 12.0203 12.8595 12.3594 12.6095 12.6095C12.3594 12.8595 12.0203 13 11.6667 13H11C10.6464 13 10.3072 12.8595 10.0572 12.6095C9.80714 12.3594 9.66667 12.0203 9.66667 11.6666V9.66665C9.66667 9.31302 9.80714 8.97389 10.0572 8.72384C10.3072 8.47379 10.6464 8.33331 11 8.33331H13V11.6666ZM1 11.6666C1 12.0203 1.14048 12.3594 1.39052 12.6095C1.64057 12.8595 1.97971 13 2.33333 13H3C3.35362 13 3.69276 12.8595 3.94281 12.6095C4.19286 12.3594 4.33333 12.0203 4.33333 11.6666V9.66665C4.33333 9.31302 4.19286 8.97389 3.94281 8.72384C3.69276 8.47379 3.35362 8.33331 3 8.33331H1V11.6666Z" stroke="white" stroke-width="2" stroke-linecap="round" stroke-linejoin="round"/>
</svg>
