<svg width="17" height="17" viewBox="0 0 17 17" fill="none" xmlns="http://www.w3.org/2000/svg">
<path d="M14.7222 0.5H2.27778C1.29594 0.5 0.5 1.29594 0.5 2.27778V14.7222C0.5 15.7041 1.29594 16.5 2.27778 16.5H14.7222C15.7041 16.5 16.5 15.7041 16.5 14.7222V2.27778C16.5 1.29594 15.7041 0.5 14.7222 0.5Z" stroke="#010101" stroke-linecap="round" stroke-linejoin="round"/>
<path d="M5.38875 6.72233C6.12513 6.72233 6.72209 6.12538 6.72209 5.389C6.72209 4.65262 6.12513 4.05566 5.38875 4.05566C4.65237 4.05566 4.05542 4.65262 4.05542 5.389C4.05542 6.12538 4.65237 6.72233 5.38875 6.72233Z" stroke="#010101" stroke-linecap="round" stroke-linejoin="round"/>
<path d="M16.5003 11.1667L12.0559 6.72229L2.27808 16.5001" stroke="#010101" stroke-linecap="round" stroke-linejoin="round"/>
</svg>
