<svg width="21" height="17" viewBox="0 0 21 17" fill="none" xmlns="http://www.w3.org/2000/svg">
<path d="M2.59194 16.2849C1.54253 16.2068 0.750532 15.4558 0.65312 14.4073C0.580508 13.5956 0.529666 12.7822 0.50065 11.9678C0.484179 11.5325 0.783003 11.1593 1.15947 10.9414C1.58839 10.6943 1.94468 10.3386 2.19251 9.91016C2.44034 9.48167 2.57096 8.99547 2.57124 8.50047C2.57088 8.00555 2.44022 7.51945 2.19239 7.09105C1.94457 6.66265 1.58832 6.30705 1.15947 6.06C0.783003 5.84165 0.484179 5.46847 0.50065 5.03365C0.54065 3.99835 0.596179 3.19976 0.65265 2.59271C0.750061 1.54471 1.54206 0.793647 2.59147 0.715059C3.991 0.610588 6.40794 0.5 10.383 0.5C14.3581 0.5 16.775 0.610118 18.1741 0.715059C19.2235 0.793176 20.0155 1.54424 20.1129 2.59271C20.1694 3.19929 20.2244 3.99788 20.2644 5.03271C20.2814 5.468 19.9821 5.84071 19.6056 6.05906C19.1769 6.3063 18.8208 6.66204 18.5731 7.09051C18.3255 7.51899 18.195 8.0051 18.1948 8.5C18.1951 8.99499 18.3257 9.48117 18.5736 9.90965C18.8214 10.3381 19.1776 10.6938 19.6065 10.9409C19.983 11.1588 20.2818 11.532 20.2654 11.9668C20.2365 12.7817 20.1858 13.5956 20.1134 14.4078C20.0159 15.4558 19.2239 16.2068 18.1745 16.2854C16.7755 16.3899 14.3581 16.5 10.3835 16.5C6.40841 16.5 3.99147 16.3899 2.59241 16.2849H2.59194Z" stroke="black" stroke-linejoin="round"/>
<path d="M13.2063 14.6177V16.3824" stroke="black" stroke-linecap="round" stroke-linejoin="round"/>
<path d="M13.2063 9.9115V11.7939" stroke="black" stroke-linecap="round" stroke-linejoin="round"/>
<path d="M13.2063 5.20569V7.08804" stroke="black" stroke-linecap="round" stroke-linejoin="round"/>
<path d="M13.2063 0.617554V2.38226" stroke="black" stroke-linecap="round" stroke-linejoin="round"/>
</svg>
