<svg width="40" height="40" viewBox="0 0 40 40" fill="none" xmlns="http://www.w3.org/2000/svg">
<path d="M29.9999 17.5758C29.9999 26.0606 19.1666 33.3334 19.1666 33.3334C19.1666 33.3334 8.33325 26.0606 8.33325 17.5758C8.33325 14.6825 9.47462 11.9077 11.5063 9.86189C13.5379 7.81603 16.2934 6.66669 19.1666 6.66669C22.0398 6.66669 24.7953 7.81603 26.8269 9.86189C28.8586 11.9077 29.9999 14.6825 29.9999 17.5758Z" stroke="black" stroke-width="1.5" stroke-linecap="round" stroke-linejoin="round"/>
<path d="M19.1668 21.2124C21.1611 21.2124 22.7779 19.5843 22.7779 17.576C22.7779 15.5677 21.1611 13.9396 19.1668 13.9396C17.1724 13.9396 15.5557 15.5677 15.5557 17.576C15.5557 19.5843 17.1724 21.2124 19.1668 21.2124Z" stroke="black" stroke-width="1.5" stroke-linecap="round" stroke-linejoin="round"/>
</svg>
