<svg width="40" height="40" viewBox="0 0 40 40" fill="none" xmlns="http://www.w3.org/2000/svg">
<path d="M13.3916 26.9999L15.0416 26.9999L15.0416 25.1665L13.3916 25.1665L13.3916 26.9999ZM13.3916 14.1665L15.0416 14.1665L15.0416 12.3332L13.3916 12.3332L13.3916 14.1665ZM16.6916 26.9999L18.3416 26.9999L18.3416 25.1665L16.6916 25.1665L16.6916 26.9999ZM16.6916 14.1665L18.3416 14.1665L18.3416 12.3332L16.6916 12.3332L16.6916 14.1665ZM19.9916 26.9999L21.6416 26.9999L21.6416 25.1665L19.9916 25.1665L19.9916 26.9999ZM19.9916 14.1665L21.6416 14.1665L21.6416 12.3332L19.9916 12.3332L19.9916 14.1665ZM23.2916 26.9999L24.9416 26.9999L24.9416 25.1665L23.2916 25.1665L23.2916 26.9999ZM23.2916 14.1665L24.9416 14.1665L24.9416 12.3332L23.2916 12.3332L23.2916 14.1665Z" fill="black"/>
<path d="M10 31.5834C10 32.3127 10.2897 33.0122 10.8055 33.5279C11.3212 34.0436 12.0207 34.3334 12.75 34.3334L15.5 34.3334C15.7431 34.3334 15.9763 34.2368 16.1482 34.0649C16.3201 33.893 16.4167 33.6598 16.4167 33.4167C16.4167 32.6874 16.7064 31.9879 17.2221 31.4722C17.7378 30.9564 18.4373 30.6667 19.1667 30.6667C19.896 30.6667 20.5955 30.9564 21.1112 31.4722C21.6269 31.9879 21.9167 32.6874 21.9167 33.4167C21.9167 33.6598 22.0132 33.893 22.1852 34.0649C22.3571 34.2368 22.5902 34.3334 22.8333 34.3334L25.5833 34.3334C26.3127 34.3334 27.0122 34.0436 27.5279 33.5279C28.0436 33.0122 28.3333 32.3127 28.3333 31.5834L28.3333 7.75004C28.3333 7.02069 28.0436 6.32122 27.5279 5.8055C27.0122 5.28977 26.3127 5.00004 25.5833 5.00004L22.8333 5.00004C22.5902 5.00004 22.3571 5.09662 22.1852 5.26852C22.0132 5.44043 21.9167 5.67359 21.9167 5.91671C21.9167 6.64605 21.6269 7.34553 21.1112 7.86125C20.5955 8.37698 19.896 8.66671 19.1667 8.66671C18.4373 8.66671 17.7378 8.37698 17.2221 7.86125C16.7064 7.34553 16.4167 6.64605 16.4167 5.91671C16.4167 5.67359 16.3201 5.44043 16.1482 5.26852C15.9763 5.09662 15.7431 5.00004 15.5 5.00004L12.75 5.00004C12.0207 5.00004 11.3212 5.28977 10.8055 5.8055C10.2897 6.32122 10 7.02069 10 7.75004L10 31.5834ZM12.75 32.5C12.5069 32.5 12.2737 32.4035 12.1018 32.2316C11.9299 32.0596 11.8333 31.8265 11.8333 31.5834L11.8333 7.75004C11.8333 7.50692 11.9299 7.27377 12.1018 7.10186C12.2737 6.92995 12.5069 6.83337 12.75 6.83337L14.675 6.83337C14.8854 7.86947 15.4475 8.80097 16.2661 9.47005C17.0847 10.1391 18.1094 10.5046 19.1667 10.5046C20.2239 10.5046 21.2486 10.1391 22.0672 9.47005C22.8858 8.80097 23.4479 7.86947 23.6583 6.83337L25.5833 6.83337C25.8264 6.83337 26.0596 6.92995 26.2315 7.10186C26.4034 7.27377 26.5 7.50692 26.5 7.75004L26.5 31.5834C26.5 31.8265 26.4034 32.0596 26.2315 32.2316C26.0596 32.4035 25.8264 32.5 25.5833 32.5L23.6583 32.5C23.4479 31.4639 22.8858 30.5324 22.0672 29.8634C21.2486 29.1943 20.2239 28.8288 19.1667 28.8288C18.1094 28.8288 17.0847 29.1943 16.2661 29.8634C15.4475 30.5324 14.8854 31.4639 14.675 32.5L12.75 32.5Z" fill="black"/>
</svg>
