<svg width="40" height="40" viewBox="0 0 40 40" fill="none" xmlns="http://www.w3.org/2000/svg">
<path d="M30.3702 6.66669H9.62947C7.99307 6.66669 6.6665 7.99325 6.6665 9.62965V30.3704C6.6665 32.0068 7.99307 33.3334 9.62947 33.3334H30.3702C32.0066 33.3334 33.3332 32.0068 33.3332 30.3704V9.62965C33.3332 7.99325 32.0066 6.66669 30.3702 6.66669Z" stroke="black" stroke-width="1.5" stroke-linecap="round" stroke-linejoin="round"/>
<path d="M14.8148 17.037C16.0421 17.037 17.037 16.0421 17.037 14.8148C17.037 13.5875 16.0421 12.5926 14.8148 12.5926C13.5875 12.5926 12.5925 13.5875 12.5925 14.8148C12.5925 16.0421 13.5875 17.037 14.8148 17.037Z" stroke="black" stroke-width="1.5" stroke-linecap="round" stroke-linejoin="round"/>
<path d="M33.3331 24.4445L25.9257 17.037L9.62939 33.3333" stroke="black" stroke-width="1.5" stroke-linecap="round" stroke-linejoin="round"/>
</svg>
