<svg width="34" height="34" viewBox="0 0 34 34" fill="none" xmlns="http://www.w3.org/2000/svg">
<circle cx="16.531" cy="16.531" r="16.531" fill="#E0DEDE"/>
<path d="M16.0312 26C21.0018 26 25.0312 21.9706 25.0312 17C25.0312 12.0294 21.0018 8 16.0312 8C11.0607 8 7.03125 12.0294 7.03125 17C7.03125 21.9706 11.0607 26 16.0312 26Z" stroke="black" stroke-linecap="round" stroke-linejoin="round"/>
<path d="M16.0312 8C13.5312 11 12.0312 13.5 12.0312 17C12.0312 20.5 13.5312 23 16.0312 26" stroke="black" stroke-linecap="round" stroke-linejoin="round"/>
<path d="M16.0312 8C18.5312 11 20.0312 13.5 20.0312 17C20.0312 20.5 18.5312 23 16.0312 26" stroke="black" stroke-linecap="round" stroke-linejoin="round"/>
<path d="M7.53125 14H24.5312" stroke="black" stroke-linecap="round" stroke-linejoin="round"/>
<path d="M7.53125 20H24.5312" stroke="black" stroke-linecap="round" stroke-linejoin="round"/>
</svg>
