<svg width="34" height="34" viewBox="0 0 34 34" fill="none" xmlns="http://www.w3.org/2000/svg">
<circle cx="16.531" cy="16.531" r="16.531" fill="#E0DEDE"/>
<path d="M21.4579 12.9655C21.4579 11.6485 20.975 10.3856 20.1155 9.45435C19.256 8.52315 18.0902 8 16.8747 8C15.6592 8 14.4934 8.52315 13.6339 9.45435C12.7744 10.3856 12.2916 11.6485 12.2916 12.9655C12.2916 18.7585 10 20.4137 10 20.4137H23.7494C23.7494 20.4137 21.4579 18.7585 21.4579 12.9655Z" stroke="black" stroke-linecap="round" stroke-linejoin="round"/>
<path d="M18.1962 23.7236C18.0619 23.9745 17.8691 24.1827 17.6372 24.3274C17.4053 24.4721 17.1423 24.5483 16.8747 24.5483C16.6071 24.5483 16.3441 24.4721 16.1122 24.3274C15.8803 24.1827 15.6875 23.9745 15.5532 23.7236" stroke="black" stroke-linecap="round" stroke-linejoin="round"/>
</svg>
